<svg width="52" height="60" viewBox="0 0 52 60" fill="none" xmlns="http://www.w3.org/2000/svg">
<path d="M51.0047 14.7135L36.9265 0.971492C36.2886 0.348741 35.4209 0 34.5192 0H3.40258C1.52266 0 0 1.4863 0 3.32134V56.6787C0 58.5137 1.52266 60 3.40258 60H48.5974C50.4773 60 52 58.5137 52 56.6787V17.0634C52 16.1832 51.6427 15.3363 51.0047 14.7135ZM49.4481 56.6787C49.4481 57.1437 49.0653 57.509 48.5974 57.509H3.40258C2.93473 57.509 2.55194 57.1437 2.55194 56.6787V3.32134C2.55194 2.86466 2.93473 2.491 3.40258 2.491H32.4011C32.8775 2.491 33.2518 2.86466 33.2518 3.32134V14.7135C33.2518 16.6897 34.8935 18.3006 36.9265 18.3006H48.5974C49.0653 18.3006 49.4481 18.6659 49.4481 19.1309V56.6787Z" fill="#AF8CCE"/>
<path d="M16.3069 32.3082V36.3353C16.3069 39.4657 14.4524 39.9722 12.1897 39.9722C9.79091 39.9722 8.03857 39.2664 8.03857 36.7007V35.9617C8.03857 35.8869 8.08961 35.8371 8.16617 35.8371H10.4799C10.548 35.8371 10.6075 35.8869 10.6075 35.9617V36.5678C10.6075 37.6971 11.0584 38.2036 12.1897 38.2036C13.2615 38.2036 13.6188 37.5808 13.6188 36.3353V32.2251C13.6188 32.1338 13.6954 32.0591 13.7889 32.0591H16.0517C16.1963 32.0591 16.3069 32.1753 16.3069 32.3082Z" fill="#AF8CCE"/>
<path d="M21.8275 39.8061H24.1242C24.2178 39.8061 24.2944 39.7313 24.2944 39.64V36.0363C24.2944 34.0602 22.6186 33.7612 20.6706 33.7612C18.7226 33.7612 17.6168 34.2179 17.3191 35.5049C17.2935 35.6046 17.3786 35.7125 17.4892 35.7125H19.4116C19.4882 35.7125 19.5478 35.6627 19.5648 35.5963C19.6583 35.2973 19.888 35.123 20.6706 35.123C21.7254 35.123 21.8275 35.48 21.8275 36.0447V36.1194C17.7104 35.8952 16.9873 36.8916 16.9873 38.2201C16.9873 39.3826 17.9485 39.9804 19.6583 39.9804C20.6876 39.9804 21.4617 39.5736 21.819 39.1833V39.8144L21.8275 39.8061ZM20.2878 38.7515C19.7349 38.7515 19.3946 38.5938 19.3946 38.1537C19.3946 37.4479 20.3218 37.3815 21.8275 37.4479V38.1205C21.4957 38.4941 20.9173 38.7515 20.2878 38.7515Z" fill="#AF8CCE"/>
<path d="M27.6887 38.3779L28.3607 37.7552L29.8493 39.7314C29.8833 39.7729 29.9344 39.7978 29.9854 39.7978H32.3417C32.4863 39.7978 32.5629 39.64 32.4778 39.5321L30.028 36.4266C29.9769 36.3602 29.9854 36.2606 30.045 36.2025L32.2481 34.193C32.3587 34.0934 32.2822 33.9024 32.1291 33.9024H29.6452C29.6026 33.9024 29.5601 33.919 29.5261 33.9522L27.9694 35.4468C27.8588 35.5465 27.6802 35.4801 27.6802 35.3306V32.2251C27.6802 32.1338 27.6036 32.0591 27.51 32.0591H25.3664C25.2728 32.0591 25.1963 32.1338 25.1963 32.2251V39.64C25.1963 39.7314 25.2728 39.8061 25.3664 39.8061H27.51C27.6036 39.8061 27.6802 39.7314 27.6802 39.64V38.3779H27.6887Z" fill="#AF8CCE"/>
<path d="M35.5487 33.9106H33.4221C33.3281 33.9106 33.252 33.985 33.252 34.0767V39.64C33.252 39.7317 33.3281 39.806 33.4221 39.806H35.5487C35.6427 39.806 35.7188 39.7317 35.7188 39.64V34.0767C35.7188 33.985 35.6427 33.9106 35.5487 33.9106Z" fill="#AF8CCE"/>
<path d="M34.3833 33.4708C35.1744 33.5124 35.7528 33.1055 35.7698 32.3582C35.7783 31.7105 35.2594 31.2206 34.5959 31.1874C33.8048 31.1459 33.2264 31.5611 33.2094 32.3001C33.1924 32.9477 33.7198 33.4376 34.3833 33.4708Z" fill="#AF8CCE"/>
<path d="M40.3034 39.9721C41.8686 39.9721 43.3317 39.4822 43.7995 38.0375C43.8336 37.9295 43.7485 37.8216 43.6294 37.8216H41.7495C41.6985 37.8216 41.6474 37.8465 41.6134 37.888C41.4007 38.1703 41.0264 38.5024 40.3034 38.5024C39.3081 38.5024 38.8743 38.0125 38.7297 37.4064H43.7825C43.8761 37.4064 43.9527 37.3317 43.9612 37.2403C44.0377 34.6248 41.9196 33.7529 40.2438 33.7529C38.3724 33.7529 36.3989 34.5833 36.3989 36.8584C36.3989 39.1335 38.3639 39.9638 40.2949 39.9638L40.3034 39.9721ZM40.2438 35.2226C41.0009 35.2226 41.4603 35.5631 41.6389 36.1775H38.7722C38.9424 35.6378 39.3847 35.2226 40.2438 35.2226Z" fill="#AF8CCE"/>
<path d="M14.9886 42.5962H8.28547C8.14086 42.5962 8.03027 42.7041 8.03027 42.8453V51.9042C8.03027 52.0454 8.14086 52.1533 8.28547 52.1533H11.0926C11.2372 52.1533 11.3478 52.0454 11.3478 51.9042V49.4215C11.3478 49.2804 11.4584 49.1724 11.603 49.1724H14.5973C17.2938 49.1724 19.0461 48.2342 19.0461 45.8262C19.0461 43.8749 17.6851 42.5879 14.9886 42.5879V42.5962ZM14.206 46.997H11.4754C11.4073 46.997 11.3478 46.9388 11.3478 46.8724V44.9377C11.3478 44.8713 11.4073 44.8132 11.4754 44.8132H14.206C15.1842 44.8132 15.6776 45.0872 15.6776 45.8345C15.6776 46.5818 15.2438 46.997 14.206 46.997Z" fill="#AF8CCE"/>
<path d="M27.3912 46.4655C27.3147 46.3576 27.3317 46.2164 27.4252 46.1334L31.015 43.0363C31.1936 42.8868 31.083 42.6045 30.8448 42.6045H27.5188C27.4593 42.6045 27.3912 42.6294 27.3487 42.6709L23.9206 45.7266C23.759 45.876 23.4953 45.7598 23.4953 45.5439V42.8619C23.4953 42.7207 23.3847 42.6128 23.2401 42.6128H20.4329C20.2883 42.6128 20.1777 42.7207 20.1777 42.8619V51.9208C20.1777 52.062 20.2883 52.17 20.4329 52.17H23.2401C23.3847 52.17 23.4953 52.062 23.4953 51.9208V49.6457C23.4953 49.571 23.5293 49.5046 23.5803 49.4631L24.7882 48.4085C24.8988 48.3089 25.0775 48.3338 25.1625 48.45L27.7655 52.062C27.8165 52.1284 27.8931 52.17 27.9782 52.17H31.2106C31.4233 52.17 31.5424 51.9375 31.4148 51.7714L27.3912 46.4822V46.4655Z" fill="#AF8CCE"/>
<path d="M37.794 42.5962H32.8177C32.6731 42.5962 32.5625 42.7041 32.5625 42.8453V51.9042C32.5625 52.0454 32.6731 52.1533 32.8177 52.1533H37.794C40.8563 52.1533 43.9612 51.406 43.9612 47.3706C43.9612 43.3352 40.8563 42.5879 37.794 42.5879V42.5962ZM37.0539 49.9613H36.0076C35.9396 49.9613 35.88 49.9031 35.88 49.8367V44.9377C35.88 44.8713 35.9396 44.8132 36.0076 44.8132H37.0539C39.0274 44.8132 40.6096 44.9211 40.6096 47.3789C40.6096 49.8367 39.0274 49.9613 37.0539 49.9613Z" fill="#AF8CCE"/>
</svg>
