<svg width="82" height="96" viewBox="0 0 82 96" fill="none" xmlns="http://www.w3.org/2000/svg">
    <path d="M80.4306 23.5417L58.2303 1.55439C57.2243 0.557985 55.856 0 54.4342 0H5.36561C2.40111 0 0 2.37808 0 5.31414V90.6859C0 93.6219 2.40111 96 5.36561 96H76.6344C79.5989 96 82 93.6219 82 90.6859V27.3014C82 25.8932 81.4366 24.5381 80.4306 23.5417ZM77.9758 90.6859C77.9758 91.4298 77.3722 92.0144 76.6344 92.0144H5.36561C4.62784 92.0144 4.02421 91.4298 4.02421 90.6859V5.31414C4.02421 4.58345 4.62784 3.98561 5.36561 3.98561H51.0941C51.8452 3.98561 52.4355 4.58345 52.4355 5.31414V23.5417C52.4355 26.7036 55.0244 29.2809 58.2303 29.2809H76.6344C77.3722 29.2809 77.9758 29.8655 77.9758 30.6095V90.6859Z" fill="#FD4D4D"/>
    <path d="M25.7147 51.6933V58.1367C25.7147 63.1453 22.7905 63.9557 19.2223 63.9557C15.4396 63.9557 12.6763 62.8265 12.6763 58.7213V57.5389C12.6763 57.4193 12.7568 57.3396 12.8775 57.3396H16.5261C16.6334 57.3396 16.7273 57.4193 16.7273 57.5389V58.5087C16.7273 60.3155 17.4383 61.1259 19.2223 61.1259C20.9125 61.1259 21.4759 60.1295 21.4759 58.1367V51.5605C21.4759 51.4143 21.5966 51.2948 21.7442 51.2948H25.3123C25.5403 51.2948 25.7147 51.4808 25.7147 51.6933Z" fill="#FD4D4D"/>
    <path d="M34.4202 63.69H38.042C38.1895 63.69 38.3103 63.5705 38.3103 63.4243V57.6585C38.3103 54.4966 35.6677 54.0183 32.5959 54.0183C29.5241 54.0183 27.7802 54.749 27.3107 56.8082C27.2705 56.9676 27.4046 57.1403 27.579 57.1403H30.6106C30.7313 57.1403 30.8252 57.0606 30.8521 56.9543C30.9996 56.4761 31.3618 56.1971 32.5959 56.1971C34.2592 56.1971 34.4202 56.7684 34.4202 57.6718V57.7913C27.9278 57.4326 26.7876 59.0269 26.7876 61.1525C26.7876 63.0125 28.3034 63.969 30.9996 63.969C32.6227 63.969 33.8434 63.318 34.4068 62.6936V63.7033L34.4202 63.69ZM31.9922 62.0028C31.1203 62.0028 30.5838 61.7504 30.5838 61.0462C30.5838 59.917 32.0459 59.8107 34.4202 59.917V60.9931C33.897 61.5909 32.9849 62.0028 31.9922 62.0028Z" fill="#FD4D4D"/>
    <path d="M43.6627 61.4049L44.7224 60.4085L47.0699 63.5704C47.1236 63.6369 47.204 63.6767 47.2845 63.6767H51.0002C51.2282 63.6767 51.349 63.4243 51.2148 63.2516L47.3516 58.2829C47.2711 58.1766 47.2845 58.0172 47.3784 57.9242L50.8527 54.7091C51.027 54.5497 50.9063 54.2441 50.6649 54.2441H46.748C46.6809 54.2441 46.6138 54.2707 46.5602 54.3238L44.1054 56.7152C43.931 56.8746 43.6493 56.7683 43.6493 56.5292V51.5605C43.6493 51.4143 43.5286 51.2948 43.381 51.2948H40.0007C39.8531 51.2948 39.7324 51.4143 39.7324 51.5605V63.4243C39.7324 63.5704 39.8531 63.69 40.0007 63.69H43.381C43.5286 63.69 43.6493 63.5704 43.6493 63.4243V61.4049H43.6627Z" fill="#FD4D4D"/>
    <path d="M56.0573 54.2574H52.7038C52.5557 54.2574 52.4355 54.3764 52.4355 54.5231V63.4243C52.4355 63.5711 52.5557 63.69 52.7038 63.69H56.0573C56.2055 63.69 56.3256 63.5711 56.3256 63.4243V54.5231C56.3256 54.3764 56.2055 54.2574 56.0573 54.2574Z" fill="#FD4D4D"/>
    <path d="M54.2194 53.5533C55.4669 53.6197 56.3791 52.9687 56.4059 51.7731C56.4193 50.7368 55.6011 49.953 54.5548 49.8998C53.3073 49.8334 52.3951 50.4977 52.3683 51.6801C52.3415 52.7163 53.1731 53.5001 54.2194 53.5533Z" fill="#FD4D4D"/>
    <path d="M63.5555 63.9557C66.0237 63.9557 68.3309 63.1719 69.0686 60.8602C69.1223 60.6875 68.9882 60.5148 68.8004 60.5148H65.8359C65.7554 60.5148 65.6749 60.5547 65.6212 60.6211C65.2859 61.0728 64.6957 61.6042 63.5555 61.6042C61.986 61.6042 61.3019 60.8204 61.0739 59.8505H69.0418C69.1894 59.8505 69.3101 59.731 69.3235 59.5848C69.4442 55.3999 66.1041 54.005 63.4616 54.005C60.5105 54.005 57.3984 55.3335 57.3984 58.9737C57.3984 62.6139 60.4971 63.9424 63.5421 63.9424L63.5555 63.9557ZM63.4616 56.3565C64.6554 56.3565 65.3798 56.9012 65.6615 57.8843H61.141C61.4092 57.0208 62.1068 56.3565 63.4616 56.3565Z" fill="#FD4D4D"/>
    <path d="M23.6358 68.1539H13.0655C12.8375 68.1539 12.6631 68.3266 12.6631 68.5524V83.0468C12.6631 83.2726 12.8375 83.4453 13.0655 83.4453H17.4921C17.7202 83.4453 17.8946 83.2726 17.8946 83.0468V79.0745C17.8946 78.8486 18.0689 78.6759 18.297 78.6759H23.0187C27.271 78.6759 30.0343 77.1746 30.0343 73.3219C30.0343 70.1998 27.888 68.1406 23.6358 68.1406V68.1539ZM22.4017 75.1951H18.0958C17.9885 75.1951 17.8946 75.1021 17.8946 74.9958V71.9004C17.8946 71.7941 17.9885 71.7011 18.0958 71.7011H22.4017C23.9443 71.7011 24.7223 72.1395 24.7223 73.3352C24.7223 74.5309 24.0382 75.1951 22.4017 75.1951Z" fill="#FD4D4D"/>
    <path d="M43.1935 74.3449C43.0727 74.1722 43.0996 73.9463 43.2471 73.8135L48.9078 68.858C49.1895 68.6189 49.0152 68.1672 48.6396 68.1672H43.3947C43.3008 68.1672 43.1935 68.207 43.1264 68.2735L37.7205 73.1625C37.4657 73.4016 37.0498 73.2156 37.0498 72.8702V68.579C37.0498 68.3532 36.8755 68.1805 36.6474 68.1805H32.2208C31.9927 68.1805 31.8184 68.3532 31.8184 68.579V83.0733C31.8184 83.2992 31.9927 83.4719 32.2208 83.4719H36.6474C36.8755 83.4719 37.0498 83.2992 37.0498 83.0733V79.4332C37.0498 79.3136 37.1035 79.2073 37.184 79.1409L39.0888 77.4536C39.2631 77.2942 39.5448 77.3341 39.679 77.5201L43.7837 83.2992C43.8642 83.4055 43.9849 83.4719 44.119 83.4719H49.2164C49.5517 83.4719 49.7395 83.0999 49.5383 82.8342L43.1935 74.3714V74.3449Z" fill="#FD4D4D"/>
    <path d="M59.5983 68.1539H51.7511C51.523 68.1539 51.3486 68.3266 51.3486 68.5524V83.0468C51.3486 83.2726 51.523 83.4453 51.7511 83.4453H59.5983C64.4273 83.4453 69.3234 82.2497 69.3234 75.793C69.3234 69.3363 64.4273 68.1406 59.5983 68.1406V68.1539ZM58.4312 79.938H56.7813C56.674 79.938 56.5801 79.845 56.5801 79.7387V71.9004C56.5801 71.7941 56.674 71.7011 56.7813 71.7011H58.4312C61.5433 71.7011 64.0383 71.8738 64.0383 75.8063C64.0383 79.7387 61.5433 79.938 58.4312 79.938Z" fill="#FD4D4D"/>
</svg>
